<svg width="109" height="30" viewBox="0 0 109 30" fill="none" xmlns="http://www.w3.org/2000/svg">
<g clip-path="url(#clip0_1_1275)">
<path d="M94.3067 30.0017H83.8717V1.03271H94.349C98.523 1.03271 101.967 2.3268 104.68 4.91497C107.393 7.50315 108.748 11.0566 108.743 15.5753C108.743 20.0685 107.38 23.596 104.654 26.1576C101.928 28.7193 98.4785 30.0006 94.3067 30.0017ZM88.8812 25.5021H94.1409C96.8662 25.5021 99.113 24.6535 100.881 22.9563C102.65 21.2592 103.533 18.8009 103.531 15.5816C103.531 12.3411 102.655 9.85531 100.903 8.1242C99.1504 6.3931 96.91 5.52861 94.1816 5.53073H88.8812V25.5021Z" fill="#121B64"/>
<path d="M5.00783 30.0017H0V1.03271H18.4059V5.64687H5.00783V13.7773H17.0357V18.3119H5.00783V30.0017Z" fill="#121B64"/>
<path d="M80.6812 5.60869V1.03271H66.0478L65.5959 1.63733L62.4004 5.90622V30.0001H80.6812V25.4241H67.4082V17.7423H79.4296V13.2889H67.4082V5.60869H80.6812Z" fill="#121B64"/>
<path d="M26.6906 30.0017H21.5983V1.03271H26.6906V30.0017Z" fill="#121B64"/>
<path d="M48.474 16.332L45.4605 20.0027L45.298 20.1872L45.2769 20.2111C48.9892 24.5962 53.4038 29.0655 59.2 29.9295V24.795C55.1999 23.8611 51.8191 20.3288 48.474 16.332Z" fill="#121B64"/>
<path d="M40.6413 14.5814L43.6889 10.8726L43.8108 10.7278L43.8287 10.7071C39.9018 6.11205 35.4856 1.9243 29.8812 1.09375V6.22024C33.9496 7.12557 37.319 10.6228 40.6413 14.5814Z" fill="#121B64"/>
<path d="M55.4536 0L56.2858 1.85203L56.1086 1.92045L55.8616 2.0175L55.621 2.11933C55.4682 2.18298 55.3171 2.25139 55.1675 2.31981L54.9595 2.41687C54.8717 2.45823 54.7856 2.50119 54.6994 2.54415L54.4995 2.64598L54.2411 2.78123C54.1761 2.81623 54.111 2.85123 54.0476 2.88783L53.7892 3.03262L53.6072 3.13922L53.3438 3.29833L53.2268 3.37152C53.0394 3.4882 52.8541 3.60753 52.6709 3.72951L52.523 3.82816C52.4369 3.88544 52.3507 3.9459 52.2646 4.00636L52.1021 4.12411C52.0175 4.18298 51.9395 4.24343 51.8517 4.3039L51.6892 4.42959L51.4421 4.61575L51.2796 4.73986C51.1951 4.80509 51.1171 4.87033 51.0277 4.93715L50.9236 5.02148C50.7514 5.1615 50.5807 5.3031 50.41 5.44789L50.267 5.56881L50.0264 5.77247L49.8639 5.91726L49.6396 6.11933L49.477 6.27049L49.2576 6.47414L49.0951 6.63325L48.8822 6.83691L48.7066 7.00875C48.5847 7.12808 48.4644 7.24741 48.3441 7.36834C48.284 7.4288 48.2222 7.48926 48.1637 7.54972C48.1052 7.61018 48.0337 7.68178 47.9703 7.74861L47.7899 7.93476L47.6046 8.12888L47.4128 8.31822L47.2356 8.50756L47.0373 8.72076L46.8748 8.89419C46.7838 8.99284 46.6944 9.09308 46.6034 9.19332L46.4408 9.37948L46.1889 9.66587L46.0459 9.82498L45.8362 10.0684L45.6948 10.2275C45.6232 10.3103 45.5517 10.3866 45.4818 10.4741L45.3502 10.6333L45.121 10.9021L45.0121 11.0294L44.687 11.4256L44.5651 11.5704L41.3712 15.4543L41.2916 15.5513C40.0287 17.0835 38.5284 18.8528 37.0038 20.3548L36.9778 20.3803C36.8591 20.498 36.7405 20.6126 36.6202 20.7255L36.5796 20.7653C36.4544 20.8846 36.3276 21.0008 36.2025 21.1154L36.1781 21.1376C36.0578 21.2474 35.9392 21.354 35.8189 21.4558L35.7734 21.4956C35.6596 21.5959 35.5442 21.6929 35.4272 21.7916L35.3573 21.8425C35.2468 21.9332 35.1379 22.0223 35.0322 22.1098L34.9509 22.1766L34.6259 22.4248L34.5365 22.4948C34.4259 22.5776 34.3138 22.6539 34.2033 22.7383L34.1204 22.7971C34.0196 22.8687 33.9172 22.9387 33.8148 23.0072L33.701 23.0851C33.5905 23.1583 33.4783 23.2283 33.3759 23.2983L33.2865 23.3556C33.1809 23.4208 33.0752 23.4829 32.9615 23.5434L32.8526 23.6086C32.7518 23.6659 32.6494 23.7216 32.547 23.7677L32.4218 23.8345C32.3129 23.8918 32.2024 23.9459 32.0967 23.9936L31.9911 24.0446C31.8757 24.0986 31.7587 24.1496 31.6433 24.2037L31.5506 24.245C31.4466 24.288 31.3393 24.3294 31.2337 24.3707L31.1069 24.42C31.0289 24.4487 30.9508 24.4757 30.8728 24.5012L30.7591 24.5394L30.6567 24.576L30.4275 24.6428L30.3072 24.6778L30.2015 24.708C30.0959 24.7367 29.9902 24.7605 29.8765 24.7844V29.922C30.4319 29.8418 30.9818 29.7281 31.523 29.5815H31.5457C31.6953 29.5402 31.8432 29.4972 31.9911 29.4511L32.1065 29.4161C32.243 29.3731 32.3779 29.327 32.5128 29.2792L32.6575 29.2299L33.046 29.0835L33.1971 29.0231C33.3239 28.9722 33.4507 28.9196 33.5759 28.864L33.7254 28.7987L34.1009 28.6253L34.2374 28.5585C34.3642 28.4964 34.4926 28.4328 34.6194 28.3675L34.7234 28.3103C34.8599 28.2387 34.9948 28.1655 35.1297 28.0891L35.1427 28.0811C35.6238 27.8085 36.0941 27.5147 36.5536 27.1997C36.6803 27.1138 36.8055 27.0247 36.929 26.9356L37.0379 26.8576C37.1517 26.7765 37.2639 26.6985 37.3744 26.6078L37.5142 26.5028C37.6225 26.4222 37.7282 26.3394 37.8311 26.2546L37.9839 26.1336C38.0863 26.0525 38.1871 25.9745 38.2879 25.8854L38.4504 25.7534C38.5495 25.6706 38.6487 25.5943 38.7462 25.5004L38.9088 25.3636L39.2013 25.1042L39.3509 24.9658L39.6467 24.6953L39.7735 24.5728C40.117 24.2546 40.455 23.9231 40.7877 23.5784L40.9226 23.4399C41.0055 23.3556 41.0852 23.2681 41.1713 23.1806L41.3517 22.9912L41.5858 22.743L41.7792 22.5346C41.854 22.455 41.9271 22.3755 42.0003 22.2928C42.0734 22.21 42.1352 22.1464 42.2018 22.0716L42.4115 21.8425L42.6212 21.607L42.8227 21.3779L43.0421 21.1265L43.229 20.9117C43.3087 20.8194 43.3916 20.7271 43.4664 20.6364C43.5411 20.5457 43.5785 20.5044 43.6289 20.4391L43.8922 20.1209L44.0304 19.9618L44.4302 19.4845L44.5846 19.2999L47.7428 15.4543L47.824 15.3572L48.1312 14.9849L48.2222 14.8751L48.4368 14.6189L48.5668 14.4598C48.6253 14.3882 48.6855 14.3166 48.7456 14.2466C48.8058 14.1766 48.8399 14.1368 48.8854 14.0875L49.0577 13.8854L49.2024 13.7168L49.3649 13.5211L49.5144 13.3492L49.677 13.1583L49.8298 12.9865C49.8834 12.9244 49.9387 12.8624 49.9923 12.8019L50.1548 12.6253L50.3174 12.4471L50.4799 12.2705L50.6424 12.0939C50.6961 12.0366 50.7497 11.9777 50.805 11.9204C50.8603 11.8632 50.9123 11.8059 50.9675 11.7502C51.0228 11.6945 51.0764 11.6325 51.1301 11.5752L51.2926 11.4161L51.4551 11.2426L51.6177 11.0835C51.6746 11.0278 51.7298 10.9706 51.7802 10.9133L51.9428 10.7542L52.1199 10.5807L52.263 10.4439C52.393 10.3198 52.5247 10.1973 52.6547 10.0764L52.7782 9.96181L52.9619 9.8027L53.1244 9.66587C53.1846 9.61177 53.2447 9.56086 53.3065 9.50676L53.469 9.36834L53.6494 9.21718L53.812 9.08194L53.9956 8.93556L54.1582 8.80509L54.3418 8.66349L54.5044 8.53938C54.5661 8.49324 54.6279 8.4471 54.6913 8.40254L54.8538 8.28162L55.0408 8.15115L55.2033 8.0366L55.3902 7.91249L55.5625 7.80271L55.751 7.68496L55.925 7.57995L56.1151 7.46858L56.2923 7.36993L56.4825 7.26651C56.5426 7.2331 56.6028 7.20286 56.6629 7.17263L56.8531 7.07558L57.0384 6.98807C57.1018 6.95784 57.1635 6.9276 57.2269 6.90056L57.4268 6.81305L57.6251 6.72713C57.7487 6.67621 57.8722 6.62848 57.9957 6.58393L58.1583 6.52824L58.3647 6.45664L58.4931 6.74145L59.2034 8.31822L59.2131 8.30549L62.4038 4.04137L64.6598 1.02784L64.694 0.983292L55.4536 0Z" fill="#0FFE89"/>
</g>
<defs>
<clipPath id="clip0_1_1275">
<rect width="108.75" height="30" fill="white"/>
</clipPath>
</defs>
</svg>
